<?xml version="1.0" encoding="UTF-8" standalone="no"?>
<!-- Created with Inkscape (http://www.inkscape.org/) -->

<svg
   xmlns:dc="http://purl.org/dc/elements/1.1/"
   xmlns:cc="http://creativecommons.org/ns#"
   xmlns:rdf="http://www.w3.org/1999/02/22-rdf-syntax-ns#"
   xmlns:svg="http://www.w3.org/2000/svg"
   xmlns="http://www.w3.org/2000/svg"
   xmlns:sodipodi="http://sodipodi.sourceforge.net/DTD/sodipodi-0.dtd"
   xmlns:inkscape="http://www.inkscape.org/namespaces/inkscape"
   id="svg4206"
   version="1.1"
   inkscape:version="0.91 r"
   width="1280"
   height="833"
   viewBox="0 0 1280 833"
   sodipodi:docname="ship.svg">
  <metadata
     id="metadata4212">
    <rdf:RDF>
      <cc:Work
         rdf:about="">
        <dc:format>image/svg+xml</dc:format>
        <dc:type
           rdf:resource="http://purl.org/dc/dcmitype/StillImage" />
        <dc:title></dc:title>
      </cc:Work>
    </rdf:RDF>
  </metadata>
  <defs
     id="defs4210">
    <inkscape:path-effect
       effect="skeletal"
       id="path-effect5971"
       is_visible="true"
       pattern="m -0.5171981,5 c 0,-2.76 2.24,-5 5,-5 2.76,0 5,2.24 5,5 0,2.76 -2.24,5 -5,5 -2.76,0 -5,-2.24 -5,-5 z"
       copytype="single_stretched"
       prop_scale="1"
       scale_y_rel="false"
       spacing="0"
       normal_offset="0"
       tang_offset="0"
       prop_units="false"
       vertical_pattern="false"
       fuse_tolerance="0" />
    <inkscape:path-effect
       effect="skeletal"
       id="path-effect5915"
       is_visible="true"
       pattern="m 7.7579715,-3.7923678 c 0,-2.76 2.24,-5 5.0000005,-5 2.76,0 5,2.24 5,5 0,2.76 -2.24,5 -5,5 -2.7600005,0 -5.0000005,-2.24 -5.0000005,-5 z"
       copytype="single_stretched"
       prop_scale="1"
       scale_y_rel="false"
       spacing="0"
       normal_offset="0"
       tang_offset="0"
       prop_units="false"
       vertical_pattern="false"
       fuse_tolerance="0" />
    <inkscape:path-effect
       effect="skeletal"
       id="path-effect5911"
       is_visible="true"
       pattern="M 0,5 C 0,2.24 2.24,0 5,0 7.76,0 10,2.24 10,5 10,7.76 7.76,10 5,10 2.24,10 0,7.76 0,5 Z"
       copytype="single_stretched"
       prop_scale="1"
       scale_y_rel="false"
       spacing="0"
       normal_offset="0"
       tang_offset="0"
       prop_units="false"
       vertical_pattern="false"
       fuse_tolerance="0" />
    <inkscape:path-effect
       effect="skeletal"
       id="path-effect5907"
       is_visible="true"
       pattern="M 0,5 C 0,2.24 2.24,0 5,0 7.76,0 10,2.24 10,5 10,7.76 7.76,10 5,10 2.24,10 0,7.76 0,5 Z"
       copytype="single_stretched"
       prop_scale="1"
       scale_y_rel="false"
       spacing="0"
       normal_offset="0"
       tang_offset="0"
       prop_units="false"
       vertical_pattern="false"
       fuse_tolerance="0" />
    <inkscape:path-effect
       effect="skeletal"
       id="path-effect5903"
       is_visible="true"
       pattern="M 0,5 C 0,2.24 2.24,0 5,0 7.76,0 10,2.24 10,5 10,7.76 7.76,10 5,10 2.24,10 0,7.76 0,5 Z"
       copytype="single_stretched"
       prop_scale="1"
       scale_y_rel="false"
       spacing="0"
       normal_offset="0"
       tang_offset="0"
       prop_units="false"
       vertical_pattern="false"
       fuse_tolerance="0" />
    <inkscape:path-effect
       effect="skeletal"
       id="path-effect5899"
       is_visible="true"
       pattern="M 0,5 C 0,2.24 2.24,0 5,0 7.76,0 10,2.24 10,5 10,7.76 7.76,10 5,10 2.24,10 0,7.76 0,5 Z"
       copytype="single_stretched"
       prop_scale="1"
       scale_y_rel="false"
       spacing="0"
       normal_offset="0"
       tang_offset="0"
       prop_units="false"
       vertical_pattern="false"
       fuse_tolerance="0" />
    <inkscape:path-effect
       effect="skeletal"
       id="path-effect5895"
       is_visible="true"
       pattern="m 13.964349,-11.550339 c 0,-2.76 2.24,-5 5,-5 2.76,0 5,2.24 5,5 0,2.7599997 -2.24,4.9999997 -5,4.9999997 -2.76,0 -5,-2.24 -5,-4.9999997 z"
       copytype="single_stretched"
       prop_scale="1"
       scale_y_rel="false"
       spacing="0"
       normal_offset="0"
       tang_offset="0"
       prop_units="false"
       vertical_pattern="false"
       fuse_tolerance="0" />
    <inkscape:path-effect
       effect="skeletal"
       id="path-effect5891"
       is_visible="true"
       pattern="m 10.532203,-2.8314839 c 0,-2.7599999 2.24,-5.0000004 5,-5.0000004 2.76,0 5,2.2400005 5,5.0000004 0,2.76000012 -2.24,5.0000001 -5,5.0000001 -2.76,0 -5,-2.23999998 -5,-5.0000001 z"
       copytype="single_stretched"
       prop_scale="1"
       scale_y_rel="false"
       spacing="0"
       normal_offset="0"
       tang_offset="0"
       prop_units="false"
       vertical_pattern="false"
       fuse_tolerance="0" />
    <inkscape:path-effect
       effect="skeletal"
       id="path-effect5883"
       is_visible="true"
       pattern="m 30.37397,18.483907 c 0,-2.76 2.24,-5 5,-5 2.76,0 5,2.24 5,5 0,2.76 -2.24,5 -5,5 -2.76,0 -5,-2.24 -5,-5 z"
       copytype="single_stretched"
       prop_scale="1"
       scale_y_rel="false"
       spacing="0"
       normal_offset="0"
       tang_offset="0"
       prop_units="false"
       vertical_pattern="false"
       fuse_tolerance="0" />
    <inkscape:path-effect
       effect="skeletal"
       id="path-effect5879"
       is_visible="true"
       pattern="m 1.2118705,-6.1489029 c 0,-2.76 2.24,-5.0000001 5,-5.0000001 2.76,0 5.0000005,2.2400001 5.0000005,5.0000001 0,2.76 -2.2400005,5 -5.0000005,5 -2.76,0 -5,-2.24 -5,-5 z"
       copytype="single_stretched"
       prop_scale="1"
       scale_y_rel="false"
       spacing="0"
       normal_offset="0"
       tang_offset="0"
       prop_units="false"
       vertical_pattern="false"
       fuse_tolerance="0" />
    <inkscape:path-effect
       effect="skeletal"
       id="path-effect5761"
       is_visible="true"
       pattern="m -1.4628571,3.5371429 c 0,-2.76000004 2.23999996,-5 5,-5 2.76,0 5,2.23999996 5,5 0,2.76 -2.24,5 -5,5 -2.76000004,0 -5,-2.24 -5,-5 z"
       copytype="single_stretched"
       prop_scale="1"
       scale_y_rel="false"
       spacing="0"
       normal_offset="0"
       tang_offset="0"
       prop_units="false"
       vertical_pattern="false"
       fuse_tolerance="0" />
    <inkscape:path-effect
       effect="skeletal"
       id="path-effect4250"
       is_visible="true"
       pattern="M 0,5 C 0,2.24 2.24,0 5,0 7.76,0 10,2.24 10,5 10,7.76 7.76,10 5,10 2.24,10 0,7.76 0,5 Z"
       copytype="single_stretched"
       prop_scale="1"
       scale_y_rel="false"
       spacing="0"
       normal_offset="0"
       tang_offset="0"
       prop_units="false"
       vertical_pattern="false"
       fuse_tolerance="0" />
    <inkscape:path-effect
       effect="skeletal"
       id="path-effect4246"
       is_visible="true"
       pattern="M 0,5 C 0,2.24 2.24,0 5,0 7.76,0 10,2.24 10,5 10,7.76 7.76,10 5,10 2.24,10 0,7.76 0,5 Z"
       copytype="single_stretched"
       prop_scale="1"
       scale_y_rel="false"
       spacing="0"
       normal_offset="0"
       tang_offset="0"
       prop_units="false"
       vertical_pattern="false"
       fuse_tolerance="0" />
    <inkscape:path-effect
       fuse_tolerance="0"
       vertical_pattern="false"
       prop_units="false"
       tang_offset="0"
       normal_offset="0"
       spacing="0"
       scale_y_rel="false"
       prop_scale="1"
       copytype="single_stretched"
       pattern="m -0.73142861,4.9999969 c 0,-2.76 2.24000001,-5.0000000247185 4.99999991,-5.0000000247185 2.76,0 4.9999996,2.2400000247185 4.9999996,5.0000000247185 0,2.76 -2.2399996,5 -4.9999996,5 -2.7599999,0 -4.99999991,-2.24 -4.99999991,-5 z"
       is_visible="true"
       id="path-effect4242"
       effect="skeletal" />
    <inkscape:path-effect
       effect="skeletal"
       id="path-effect4218"
       is_visible="true"
       pattern="M 0,5 C 0,2.24 2.24,0 5,0 7.76,0 10,2.24 10,5 10,7.76 7.76,10 5,10 2.24,10 0,7.76 0,5 Z"
       copytype="single_stretched"
       prop_scale="1"
       scale_y_rel="false"
       spacing="0"
       normal_offset="0"
       tang_offset="0"
       prop_units="false"
       vertical_pattern="false"
       fuse_tolerance="0" />
  </defs>
  <sodipodi:namedview
     pagecolor="#ffffff"
     bordercolor="#666666"
     borderopacity="1"
     objecttolerance="10"
     gridtolerance="10"
     guidetolerance="10"
     inkscape:pageopacity="0"
     inkscape:pageshadow="2"
     inkscape:window-width="1280"
     inkscape:window-height="974"
     id="namedview4208"
     showgrid="false"
     inkscape:zoom="1.9334951"
     inkscape:cx="721.88442"
     inkscape:cy="460.79902"
     inkscape:window-x="0"
     inkscape:window-y="25"
     inkscape:window-maximized="1"
     inkscape:current-layer="svg4206" />
  <g
     id="g5974"
     inkscape:export-xdpi="90"
     inkscape:export-ydpi="90">
    <path
       sodipodi:nodetypes="cc"
       inkscape:connector-curvature="0"
       inkscape:original-d="m 631.08844,442.27755 c -5.57515,30.70953 181.5982,-4.33644 228.26492,-35.61936"
       inkscape:path-effect="#path-effect5879"
       id="path5877"
       d="m 631.08844,442.27755 c 0.47136,0.0856 0.35576,1.0454 1.06256,2.45095 0.2655,0.54283 0.66197,1.12225 1.24058,1.66771 1.07805,1.07142 2.50495,1.70148 4.80483,2.46714 2.39688,0.73766 4.95111,1.12905 8.31524,1.44717 0,0 0,0 0,0 3.48316,0.31522 7.12964,0.40471 11.43472,0.34695 9.11485,-0.1254 18.43248,-0.89362 30.19212,-2.28425 11.48115,-1.36368 23.42309,-3.17377 36.66472,-5.52002 6.35849,-1.1276 12.86037,-2.34513 19.48895,-3.6664 21.49908,-4.28538 40.47342,-8.89282 57.67526,-13.60827 0,0 1e-5,0 1e-5,0 13.29271,-3.64622 23.36227,-6.76905 32.7776,-10.03365 15.28979,-5.32879 24.10922,-9.63124 24.60833,-8.88669 0.76933,1.14766 -7.00775,7.54704 -22.26243,14.65673 -9.00406,4.20975 -19.56342,8.33355 -32.62747,12.58599 0,0 -1e-5,10e-6 -1e-5,10e-6 -17.08136,5.56326 -36.53631,10.77267 -58.21623,15.09408 -6.72416,1.34032 -13.33121,2.52927 -19.79003,3.58188 -13.39495,2.18508 -25.7724,3.69147 -37.47934,4.55227 -11.89317,0.87969 -21.90521,1.04021 -31.2436,0.34692 -4.45702,-0.32926 -8.39952,-0.84783 -12.07668,-1.63707 0,0 -10e-6,0 -10e-6,0 -3.51518,-0.74285 -6.47504,-1.69215 -9.09006,-3.00812 -2.53654,-1.2168 -4.39494,-2.84045 -5.51806,-4.66311 -0.63117,-1.0522 -0.89947,-2.09905 -0.95986,-2.96417 -0.13236,-2.16959 0.78791,-2.96435 0.99886,-2.92605 z"
       style="opacity:1;fill:#216778;fill-opacity:1;fill-rule:nonzero;stroke:none;stroke-width:0;stroke-linecap:butt;stroke-linejoin:miter;stroke-miterlimit:0;stroke-dasharray:none;stroke-opacity:1" />
    <path
       inkscape:connector-curvature="0"
       id="path5881"
       d="m 639.96326,458.6881 c 2.23467,0.0556 2.32368,4.07048 5.16138,9.39866 0.61097,1.90526 1.48175,3.90046 2.61209,4.91753 18.35344,-3.30224 43.29609,-5.2969 72.72833,-4.35475 21.97713,0.7035 42.20187,2.88672 58.89528,5.21494 0,0 0,0 0,0 -2.49121,-6.58971 -2.13369,-12.50869 -0.6285,-17.13908 4.46288,-10.34 9.60621,-14.7245 10.95358,-14.26673 2.68309,0.91159 0.89387,7.1779 -0.0283,17.23292 -1.27704,5.61375 -2.6678,12.8955 -3.13518,20.91597 0,0 0,2e-5 0,2e-5 -17.87352,-0.2798 -37.89906,-0.15583 -63.61522,0.63809 -33.51749,1.03478 -60.42886,2.62897 -79.02694,2.54058 -4.76415,-4.75307 -6.93159,-9.76666 -7.65382,-13.6498 -0.37043,-7.93647 2.62323,-11.4761 3.73727,-11.44835 z"
       style="opacity:1;fill:#216778;fill-opacity:1;fill-rule:nonzero;stroke:none;stroke-width:0;stroke-linecap:butt;stroke-linejoin:miter;stroke-miterlimit:0;stroke-dasharray:none;stroke-opacity:1" />
    <path
       sodipodi:nodetypes="ccc"
       inkscape:connector-curvature="0"
       inkscape:original-d="m 765.82905,326.69653 c 15.8988,28.25963 26.81666,57.23081 51.17148,84.28243 l -35.61936,-6.02017"
       inkscape:path-effect="#path-effect5891"
       id="path5889"
       d="m 765.82905,326.69653 c 0.98557,-0.55448 4.41366,3.35636 9.14693,10.59423 5.62396,8.59985 9.77116,16.37825 17.46865,29.69694 0,0 1e-5,0 1e-5,0 2.7509,5.68091 5.76877,11.79513 9.01155,17.86056 5.59882,10.47226 11.04991,19.25842 16.82058,26.83226 -22.76631,-1.54382 -37.28719,-4.40482 -36.8956,-6.72173 0.39702,-2.34906 14.75877,-0.26236 34.34312,5.31861 -7.00895,-6.63346 -14.10827,-14.27315 -20.94872,-23.18093 -4.02647,-5.24335 -7.59466,-10.44713 -10.73264,-15.50268 0,0 0,0 0,0 -6.06716,-11.66885 -11.55516,-24.45505 -14.40445,-31.51149 -3.19822,-7.9206 -4.79429,-12.83169 -3.80943,-13.38577 z"
       style="opacity:1;fill:#216778;fill-opacity:1;fill-rule:nonzero;stroke:none;stroke-width:0;stroke-linecap:butt;stroke-linejoin:miter;stroke-miterlimit:0;stroke-dasharray:none;stroke-opacity:1" />
    <path
       inkscape:connector-curvature="0"
       id="path5893"
       d="m 753.02194,340.72072 c 2.1617,-0.37241 5.06452,7.6446 6.79571,20.79032 0.66634,4.9675 1.59048,14.22001 2.66501,20.34707 0.94796,5.38235 2.32115,11.04009 4.4667,16.43083 0.35982,0.90404 0.73731,1.7906 1.13328,2.65969 2.52759,9.66987 6.61367,18.03431 10.95734,24.5537 -20.65656,1.96509 -33.57143,0.77667 -33.43915,-2.22184 0.13512,-3.06282 12.70861,-2.99789 29.64024,0.56104 -6.67455,-4.39288 -13.79433,-10.05 -19.08221,-17.4219 -0.49808,-1.0794 -0.96741,-2.17586 -1.40808,-3.28837 -2.63848,-6.66108 -4.04096,-13.36806 -4.66276,-19.59672 -0.79969,-7.98638 -0.5263,-15.84789 -0.20991,-21.62854 0.66422,-12.66058 1.44046,-20.89183 3.14383,-21.18528 z"
       style="opacity:1;fill:#216778;fill-opacity:1;fill-rule:nonzero;stroke:none;stroke-width:0;stroke-linecap:butt;stroke-linejoin:miter;stroke-miterlimit:0;stroke-dasharray:none;stroke-opacity:1" />
    <path
       sodipodi:nodetypes="cccc"
       inkscape:connector-curvature="0"
       inkscape:original-d="m 736.23297,437.37264 c -7.93381,-27.17544 -2.62898,-55.82185 1.00336,-84.28243 -9.66932,-18.95635 -26.16518,-24.25964 -45.1513,-24.58237 7.70245,34.59235 1.46081,77.78258 -15.05043,112.87827"
       inkscape:path-effect="#path-effect5899"
       id="path5897"
       d="m 736.23297,437.37264 c -1.43297,0.41835 -8.15011,-14.97778 -7.53842,-41.86612 10e-6,0 0,0 0,0 0.35816,-13.53771 2.04868,-25.14906 4.10453,-41.64379 -3.64826,-6.56396 -9.40109,-12.5735 -16.81077,-15.58301 -3.45666,-2.47532 -7.33856,-4.2532 -11.5242,-5.56014 -3.2647,-1.01938 -6.64141,-1.72946 -9.99146,-2.26372 5.50354,19.8147 5.44666,38.9473 3.35043,54.87306 -5.88688,36.51541 -19.77254,56.53515 -20.78848,56.05719 -2.06871,-0.97325 8.54766,-22.21666 12.42222,-57.19858 2.3647,-16.77557 3.69778,-37.22375 0.24059,-57.62771 4.40985,-0.40271 8.98007,-0.56341 13.57431,-0.32093 5.88433,0.31057 11.62226,1.27293 17.04893,3.10422 9.83529,5.35172 17.02722,13.90436 21.35293,22.97458 -2.50761,19.23281 -4.29063,28.49697 -5.57345,43.6025 0,0 0,1e-5 0,1e-5 -1.18867,13.15507 -0.93782,22.45449 -0.34337,30.07963 0.55563,7.12708 1.24688,11.14781 0.47621,11.37281 z"
       style="opacity:1;fill:#216778;fill-opacity:1;fill-rule:nonzero;stroke:none;stroke-width:0;stroke-linecap:butt;stroke-linejoin:miter;stroke-miterlimit:0;stroke-dasharray:none;stroke-opacity:1" />
    <path
       inkscape:connector-curvature="0"
       id="path5905"
       d="m 672.08561,300.29614 c 0.46765,0.12433 0.45931,1.66011 0.24493,4.03845 -0.20103,2.23038 -0.64612,5.71165 -0.64592,9.01535 0,0.0646 1.6e-4,0.12914 3.4e-4,0.19352 0.0128,3.48992 0.55996,6.28552 1.15235,8.55431 0.56428,2.1611 1.07926,3.55271 0.67157,3.81963 -0.3623,0.2372 -1.62316,-0.70635 -2.8723,-2.90735 -1.26618,-2.23104 -2.3414,-5.5045 -2.35528,-9.45436 -1.7e-4,-0.0719 -5e-5,-0.14395 3.4e-4,-0.21606 0.0222,-3.83308 0.87608,-7.24995 1.69486,-9.53006 0.83265,-2.31875 1.67151,-3.62973 2.10893,-3.51343 z"
       style="opacity:1;fill:#216778;fill-opacity:1;fill-rule:nonzero;stroke:none;stroke-width:0;stroke-linecap:butt;stroke-linejoin:miter;stroke-miterlimit:0;stroke-dasharray:none;stroke-opacity:1" />
    <path
       inkscape:connector-curvature="0"
       id="path5909"
       d="m 706.2473,277.04721 c 0.47733,0.0367 0.69684,2.63519 0.56958,6.81023 0.0385,-1.26268 -0.79083,15.29289 -0.8072,16.04868 -10e-4,0.0534 -0.002,0.10683 -0.003,0.16018 -0.0838,4.14316 0.071,7.65053 0.50551,10.9548 0.86243,6.57875 2.71199,10.79376 2.1078,11.10056 -0.47529,0.24134 -3.46556,-3.52483 -5.01148,-10.58907 -0.75138,-3.4378 -1.09401,-7.26014 -1.00511,-11.53609 0.001,-0.0555 0.002,-0.11107 0.004,-0.16665 0.14212,-6.14333 1.13215,-12.44496 1.8153,-16.22368 0.7372,-4.07765 1.3666,-6.59422 1.8253,-6.55896 z"
       style="opacity:1;fill:#216778;fill-opacity:1;fill-rule:nonzero;stroke:none;stroke-width:0;stroke-linecap:butt;stroke-linejoin:miter;stroke-miterlimit:0;stroke-dasharray:none;stroke-opacity:1" />
    <path
       inkscape:connector-curvature="0"
       id="path5913"
       d="m 754.38868,271.10412 c 0.48062,0.0501 0.54023,3.21065 0.41762,8.27385 -0.11507,4.75147 -0.4333,12.32856 -0.39094,19.66065 0.005,0.88022 0.0149,1.74864 0.0297,2.60757 0,0 0,1e-5 0,1e-5 0.14371,7.6249 0.56635,12.71441 1.34421,17.69372 0.68948,4.41356 1.41434,7.10999 0.97179,7.27693 -0.3828,0.14441 -1.87858,-2.29149 -3.20735,-6.77008 -1.40908,-4.7493 -2.29982,-10.61643 -2.49695,-18.12403 0,0 0,0 0,0 -0.0245,-0.87794 -0.0393,-1.76625 -0.0442,-2.66494 -0.0426,-7.75438 0.66405,-14.90058 1.39472,-19.8845 0.73967,-5.04538 1.52826,-8.11642 1.98149,-8.06918 z"
       style="opacity:1;fill:#216778;fill-opacity:1;fill-rule:nonzero;stroke:none;stroke-width:0;stroke-linecap:butt;stroke-linejoin:miter;stroke-miterlimit:0;stroke-dasharray:none;stroke-opacity:1" />
    <path
       inkscape:connector-curvature="0"
       id="path5969"
       d="m 670.8103,425.68433 c 0.39782,2.89845 -11.1096,5.68658 -31.82457,5.91531 4.8731,-12.83104 9.72261,-29.62505 12.42716,-49.24204 2.56894,-18.6335 2.54944,-35.09343 1.30285,-48.43779 21.19097,5.89635 32.49249,11.83199 31.32954,14.65631 -1.1883,2.88589 -12.92638,-0.80939 -27.36475,-9.51193 2.27252,12.95677 3.20549,27.9086 0.91271,44.40529 -2.41386,17.36781 -7.81604,32.21574 -13.65266,44.35559 15.05109,-4.61583 26.46321,-5.10247 26.86972,-2.14074 z"
       style="opacity:1;fill:#216778;fill-opacity:1;fill-rule:nonzero;stroke:none;stroke-width:0;stroke-linecap:butt;stroke-linejoin:miter;stroke-miterlimit:0;stroke-dasharray:none;stroke-opacity:1" />
  </g>
</svg>
