<?xml version="1.0" encoding="UTF-8" standalone="no"?>
<!-- Created with Inkscape (http://www.inkscape.org/) -->

<svg
   xmlns:dc="http://purl.org/dc/elements/1.1/"
   xmlns:cc="http://creativecommons.org/ns#"
   xmlns:rdf="http://www.w3.org/1999/02/22-rdf-syntax-ns#"
   xmlns:svg="http://www.w3.org/2000/svg"
   xmlns="http://www.w3.org/2000/svg"
   xmlns:xlink="http://www.w3.org/1999/xlink"
   xmlns:sodipodi="http://sodipodi.sourceforge.net/DTD/sodipodi-0.dtd"
   xmlns:inkscape="http://www.inkscape.org/namespaces/inkscape"
   width="1189mm"
   height="841mm"
   viewBox="0 0 4212.9921 2979.9213"
   id="svg2"
   version="1.1"
   inkscape:version="0.91 r"
   sodipodi:docname="vectorsoda.svg">
  <defs
     id="defs4" />
  <sodipodi:namedview
     id="base"
     pagecolor="#ffffff"
     bordercolor="#666666"
     borderopacity="1.0"
     inkscape:pageopacity="0.0"
     inkscape:pageshadow="2"
     inkscape:zoom="1"
     inkscape:cx="236.06754"
     inkscape:cy="349.17359"
     inkscape:document-units="px"
     inkscape:current-layer="layer1"
     showgrid="false"
     units="mm"
     inkscape:object-paths="false"
     inkscape:window-width="1280"
     inkscape:window-height="974"
     inkscape:window-x="0"
     inkscape:window-y="25"
     inkscape:window-maximized="1"
     inkscape:snap-nodes="true"
     inkscape:snap-intersection-paths="false" />
  <metadata
     id="metadata7">
    <rdf:RDF>
      <cc:Work
         rdf:about="">
        <dc:format>image/svg+xml</dc:format>
        <dc:type
           rdf:resource="http://purl.org/dc/dcmitype/StillImage" />
        <dc:title />
      </cc:Work>
    </rdf:RDF>
  </metadata>
  <g
     inkscape:label="Layer 1"
     inkscape:groupmode="layer"
     id="layer1"
     transform="translate(0,1927.5591)">
    <ellipse
       ry="42.427414"
       rx="127.37955"
       cy="803.78625"
       cx="337.61703"
       id="ellipse4150"
       style="opacity:0.519;fill:#333333;fill-opacity:1;stroke:none;stroke-width:4.51500034;stroke-linecap:butt;stroke-linejoin:miter;stroke-miterlimit:4;stroke-dasharray:none;stroke-opacity:1"
       inkscape:export-xdpi="90"
       inkscape:export-ydpi="90" />
    <path
       style="opacity:1;fill:#b3b3b3;fill-opacity:1;stroke:none;stroke-width:5.00000045;stroke-linecap:butt;stroke-linejoin:miter;stroke-miterlimit:4;stroke-dasharray:none;stroke-opacity:1"
       d="M 243.57227 2376.4062 L 222.93555 2395.8789 A 132.83498 35.607868 0 0 0 207.76367 2410.1953 L 207.70703 2410.25 C 207.70744 2410.2575 207.71074 2410.2598 207.71094 2410.2676 L 207.71289 2410.2812 C 207.71589 2410.3938 207.67162 2410.4997 207.66602 2410.6113 C 207.66502 2410.6383 207.68746 2410.689 207.69336 2410.7148 C 207.71606 2410.815 207.71426 2410.8266 207.72266 2410.9238 C 207.71666 2411.0491 207.70824 2411.1733 207.71094 2411.2988 C 207.70294 2411.3708 207.72707 2411.4761 207.71289 2411.5449 C 207.68979 2411.6572 207.68298 2411.6615 207.64258 2411.7402 C 207.65458 2411.7402 207.6499 2411.7188 207.6582 2411.7148 C 207.6662 2411.7148 207.67178 2411.884 207.67188 2411.8945 C 207.66964 2411.979 207.65859 2411.9921 207.61914 2412.0527 C 207.64162 2412.1256 207.62403 2412.3135 207.62305 2412.3984 C 207.62354 2412.4974 207.62516 2412.5967 207.625 2412.6953 C 207.62477 2412.7813 207.62498 2412.8686 207.625 2412.9551 C 207.588 2413.0718 207.59121 2413.1201 207.49219 2413.1992 C 207.48463 2413.2053 207.47503 2413.2078 207.4668 2413.2129 L 204.8457 2727.1191 L 207.51367 2727.1191 A 132.83496 35.607866 0 0 0 207.45898 2727.416 A 132.83496 35.607866 0 0 0 340.29492 2763.0234 A 132.83496 35.607866 0 0 0 473.12891 2727.416 A 132.83496 35.607866 0 0 0 473.08984 2727.1191 L 475.60547 2727.1191 L 475.60547 2412.9961 L 475.60547 2412.9062 L 475.51562 2412.9062 L 472.67188 2410.0625 A 132.83498 35.607868 0 0 0 459.51758 2396.9082 L 439.01562 2376.4062 L 243.57227 2376.4062 z M 206.80273 2411.1016 L 206.73828 2411.1641 C 206.74236 2411.1685 206.74953 2411.1801 206.75391 2411.1855 C 206.76586 2411.1805 206.77576 2411.1665 206.78906 2411.166 C 206.7999 2411.1655 206.79876 2411.1719 206.80859 2411.1719 C 206.8049 2411.1485 206.80437 2411.1251 206.80273 2411.1016 z M 205.5918 2412.4258 C 205.5883 2412.4273 205.58565 2412.4302 205.58203 2412.4316 C 205.58506 2412.439 205.5872 2412.4469 205.5918 2412.4414 C 205.59169 2412.4362 205.59194 2412.431 205.5918 2412.4258 z M 205.56641 2412.4395 C 205.55849 2412.4419 205.55344 2412.4475 205.54492 2412.4492 C 205.54441 2412.4558 205.54367 2412.4601 205.54297 2412.4688 C 205.54408 2412.4719 205.54182 2412.4688 205.54297 2412.4727 C 205.54358 2412.4746 205.54429 2412.4766 205.54492 2412.4785 C 205.54673 2412.4771 205.54898 2412.4779 205.55078 2412.4766 C 205.55737 2412.4647 205.55889 2412.4509 205.56641 2412.4395 z "
       transform="translate(-2.4414065e-4,-1927.5591)"
       id="path4136"
       inkscape:export-xdpi="90"
       inkscape:export-ydpi="90" />
    <path
       style="opacity:1;fill:#ff5555;fill-opacity:1;stroke:none;stroke-width:5;stroke-linecap:butt;stroke-linejoin:miter;stroke-miterlimit:4;stroke-dasharray:none;stroke-opacity:1"
       d="m 243.57227,2376.4062 -20.63672,19.4727 c -8.76277,4.4324 -13.93298,9.3111 -15.17188,14.3164 l -0.0566,0.055 c 4.1e-4,0.01 0.004,0.01 0.004,0.018 l 0.002,0.014 c 0.003,0.1126 -0.0413,0.2185 -0.0469,0.3301 -0.001,0.027 0.0214,0.078 0.0273,0.1035 0.0227,0.1002 0.0209,0.1118 0.0293,0.209 -0.006,0.1253 -0.0144,0.2495 -0.0117,0.375 -0.008,0.072 0.0161,0.1773 0.002,0.2461 -0.0231,0.1123 -0.0299,0.1166 -0.0703,0.1953 0.012,0 0.007,-0.021 0.0156,-0.025 0.008,0 0.0136,0.1692 0.0137,0.1797 -0.002,0.084 -0.0133,0.098 -0.0527,0.1582 0.0225,0.073 0.005,0.2608 0.004,0.3457 1.1e-4,0.022 -1.9e-4,0.044 0,0.066 l -0.1836,-1.7382 c -1.45683,2.0968 2.2921,5.9745 2.25586,8.1074 -0.003,19.6664 59.4706,35.6095 132.83594,35.6094 73.36458,-2e-4 132.83713,-15.9432 132.83398,-35.6094 -0.0213,-1.8976 0.89151,-1.7916 -0.25585,-3.6641 l 0.49609,-1.99 -0.0371,-0.2696 -0.0527,0 -2.84374,-2.8437 c -1.18675,-4.5708 -5.65319,-9.0372 -13.1543,-13.1543 l -20.50196,-20.502 z m -35.98243,36.6602 c -0.0131,0.036 -0.0406,0.071 -0.0762,0.1055 l -0.0664,2.4765 z"
       id="ellipse4155"
       transform="translate(-2.4414065e-4,-1927.5591)"
       inkscape:connector-curvature="0"
       sodipodi:nodetypes="cccccccccccccccccccsccccccccccccc"
       inkscape:export-xdpi="90"
       inkscape:export-ydpi="90" />
    <path
       sodipodi:type="inkscape:offset"
       inkscape:radius="0"
       inkscape:original="M 340.29297 424.22266 A 114.59753 30.719112 0 0 0 225.69727 454.94141 A 114.59753 30.719112 0 0 0 340.29297 485.66211 A 114.59753 30.719112 0 0 0 454.89062 454.94141 A 114.59753 30.719112 0 0 0 340.29297 424.22266 z "
       xlink:href="#ellipse4149"
       style="opacity:1;fill:#cccccc;fill-opacity:1;stroke:none;stroke-width:4.31352758;stroke-linecap:butt;stroke-linejoin:miter;stroke-miterlimit:4;stroke-dasharray:none;stroke-opacity:1"
       id="path4246"
       inkscape:href="#ellipse4149"
       d="m 340.29297,424.22266 a 114.59753,30.719112 0 0 0 -114.5957,30.71875 114.59753,30.719112 0 0 0 114.5957,30.7207 114.59753,30.719112 0 0 0 114.59765,-30.7207 114.59753,30.719112 0 0 0 -114.59765,-30.71875 z"
       inkscape:export-xdpi="90"
       inkscape:export-ydpi="90" />
    <ellipse
       ry="30.719112"
       rx="114.59753"
       cy="454.94229"
       cx="340.29382"
       id="ellipse4149"
       style="opacity:1;fill:#cccccc;fill-opacity:1;stroke:none;stroke-width:4.31352758;stroke-linecap:butt;stroke-linejoin:miter;stroke-miterlimit:4;stroke-dasharray:none;stroke-opacity:1"
       inkscape:export-xdpi="90"
       inkscape:export-ydpi="90" />
    <ellipse
       style="opacity:1;fill:#b3b3b3;fill-opacity:1;stroke:none;stroke-width:3.40181422;stroke-linecap:butt;stroke-linejoin:miter;stroke-miterlimit:4;stroke-dasharray:none;stroke-opacity:1"
       id="ellipse4151"
       cx="340.29382"
       cy="453.8118"
       rx="100.35946"
       ry="24.266663"
       inkscape:export-xdpi="90"
       inkscape:export-ydpi="90" />
    <ellipse
       ry="21.784636"
       rx="92.085709"
       cy="452.99799"
       cx="340.29382"
       id="ellipse4153"
       style="opacity:1;fill:#cccccc;fill-opacity:1;stroke:none;stroke-width:2.58523512;stroke-linecap:butt;stroke-linejoin:miter;stroke-miterlimit:4;stroke-dasharray:none;stroke-opacity:1"
       inkscape:export-xdpi="90"
       inkscape:export-ydpi="90" />
    <circle
       style="opacity:1;fill:#f9f9f9;fill-opacity:1;stroke:none;stroke-width:4.51499987;stroke-linecap:butt;stroke-linejoin:miter;stroke-miterlimit:4;stroke-dasharray:none;stroke-opacity:1"
       id="path4216"
       cx="341.64017"
       cy="657.0979"
       r="68.25"
       inkscape:export-xdpi="90"
       inkscape:export-ydpi="90" />
    <path
       style="opacity:1;fill:#ff5555;fill-opacity:1;stroke:none;stroke-width:4.51499987;stroke-linecap:butt;stroke-linejoin:miter;stroke-miterlimit:4;stroke-dasharray:none;stroke-opacity:1"
       d="m 341.64038,594.5093 a 62.588829,62.588833 0 0 0 -62.58984,62.5878 62.588829,62.588833 0 0 0 3.88672,21.5762 123.09521,93.903112 18.732739 0 0 96.02539,-16.998 123.09521,93.903112 18.732739 0 0 22.17773,-23.7539 62.588829,62.588833 0 0 0 -59.5,-43.4121 z"
       id="path4230"
       inkscape:export-xdpi="90"
       inkscape:export-ydpi="90" />
    <path
       style="opacity:1;fill:#3737c8;fill-opacity:1;stroke:none;stroke-width:4.51499987;stroke-linecap:butt;stroke-linejoin:miter;stroke-miterlimit:4;stroke-dasharray:none;stroke-opacity:1"
       d="m 403.8357,663.8725 a 120.84691,92.187986 18.732739 0 1 -11.27735,9.836 120.84691,92.187986 18.732739 0 1 -105.31836,14.1816 62.588829,62.588833 0 0 0 54.40039,31.7969 62.588829,62.588833 0 0 0 62.19532,-55.8145 z"
       id="circle4220"
       inkscape:export-xdpi="90"
       inkscape:export-ydpi="90" />
    <path
       style="opacity:0.54500002;fill:#ffffff;fill-opacity:1;stroke:none;stroke-width:5.00000048;stroke-linecap:butt;stroke-linejoin:miter;stroke-miterlimit:4;stroke-dasharray:none;stroke-opacity:1"
       d="m 473.78882,509.1636 c -0.0304,0.0191 -0.0634,0.0416 -0.0937,0.0607 -12.9233,8.12021 -25.43884,12.29706 -39.25,15.89142 -8.64891,2.25084 -17.82334,4.11268 -27.375,5.60871 l 0,294.48599 a 129.66369,33.743492 0 0 0 64.30078,-29.10174 129.66369,33.743492 0 0 0 -0.0391,-0.2825 l 2.45703,0 0,-286.66256 z"
       id="path4244"
       inkscape:connector-curvature="0"
       inkscape:export-xdpi="90"
       inkscape:export-ydpi="90" />
    <path
       style="opacity:0.54500002;fill:#ffffff;fill-opacity:1;stroke:none;stroke-width:5.00000048;stroke-linecap:butt;stroke-linejoin:miter;stroke-miterlimit:4;stroke-dasharray:none;stroke-opacity:1"
       d="m 233.28882,475.3179 -6.13867,5.64645 a 129.66373,33.890178 0 0 0 -14.81055,13.62577 l -0.0547,0.0533 c 4.1e-4,0.01 0.004,0.01 0.004,0.0171 l 0.002,0.0134 c 0.003,0.10715 -0.0395,0.20797 -0.0449,0.31425 -9.7e-4,0.0257 0.0197,0.0728 0.0254,0.0971 0.0221,0.0955 0.0211,0.10745 0.0293,0.19998 -0.006,0.11925 -0.0142,0.23665 -0.0117,0.35609 -0.008,0.0685 0.0157,0.16878 0.002,0.2342 -0.0225,0.10687 -0.029,0.11174 -0.0684,0.18663 0.0118,0 0.007,-0.0209 0.0156,-0.0247 0.008,0 0.0115,0.16137 0.0117,0.17131 -0.002,0.0799 -0.0124,0.0931 -0.0508,0.15045 0.0219,0.0694 0.005,0.24873 0.004,0.32947 4.7e-4,0.0943 0.002,0.18798 0.002,0.28188 -2.3e-4,0.0818 -2e-5,0.16527 0,0.24756 -0.0361,0.11106 -0.0323,0.15708 -0.12891,0.23235 -0.008,0.01 -0.0174,0.01 -0.0254,0.0133 l -2.55859,298.76368 2.60547,0 a 129.66371,33.890176 0 0 0 -0.0547,0.28374 129.66371,33.890176 0 0 0 72.21484,30.36133 l 0,-333.61165 A 111.86168,29.237251 0 0 1 233.28906,475.3179 Z"
       id="path4242"
       inkscape:connector-curvature="0"
       inkscape:export-xdpi="90"
       inkscape:export-ydpi="90" />
    <path
       style="opacity:0.54500002;fill:#ffffff;fill-opacity:1;stroke:none;stroke-width:5.00000048;stroke-linecap:butt;stroke-linejoin:miter;stroke-miterlimit:4;stroke-dasharray:none;stroke-opacity:1"
       d="m 211.4021,495.9682 -0.0625,0.0606 c 0.004,0 0.009,0.0166 0.0137,0.0215 0.0118,-0.01 0.0221,-0.0196 0.0351,-0.0196 0.0106,-4e-4 0.0105,0.01 0.0195,0.01 -0.004,-0.0224 -0.004,-0.0459 -0.006,-0.0684 l 0,-0.004 z"
       id="path4240"
       inkscape:export-xdpi="90"
       inkscape:export-ydpi="90" />
    <path
       style="opacity:0.54500002;fill:#ffffff;fill-opacity:1;stroke:none;stroke-width:5.00000048;stroke-linecap:butt;stroke-linejoin:miter;stroke-miterlimit:4;stroke-dasharray:none;stroke-opacity:1"
       d="m 210.22046,497.2612 c -0.004,0 -0.006,-2e-4 -0.01,0.01 0.003,0.01 0.005,0.0143 0.01,0.01 -1.1e-4,-0.01 1.4e-4,-0.01 0,-0.0156 l 0,-0.004 z"
       id="path4238"
       inkscape:export-xdpi="90"
       inkscape:export-ydpi="90" />
    <path
       style="opacity:0.54500002;fill:#ffffff;fill-opacity:1;stroke:none;stroke-width:5.00000048;stroke-linecap:butt;stroke-linejoin:miter;stroke-miterlimit:4;stroke-dasharray:none;stroke-opacity:1"
       d="m 210.19507,497.2749 c -0.008,0 -0.0132,0.01 -0.0215,0.01 -5e-4,0.01 -9.4e-4,0.0108 -0.002,0.0195 5.8e-4,0 9.3e-4,-3e-4 0.002,0.01 0.002,0 0.004,-5e-4 0.006,0 0.007,-0.0118 0.008,-0.0244 0.0156,-0.0351 l 0,-0.004 z"
       id="path4207"
       inkscape:export-xdpi="90"
       inkscape:export-ydpi="90" />
    <path
       style="opacity:1;fill:#b3b3b3;fill-opacity:1;stroke:none;stroke-width:4.51499987;stroke-linecap:butt;stroke-linejoin:miter;stroke-miterlimit:4;stroke-dasharray:none;stroke-opacity:1"
       d="m 393.3493,430.46588 -2.72686,0.85105 c -1.17041,0.13452 -2.28597,0.32822 -3.31287,0.59003 -0.70373,0.17939 -1.36726,0.38931 -1.97838,0.63271 l -4.97335,1.98145 -18.77118,7.47575 -4.09386,1.63005 c -2.52432,1.00532 -4.80587,1.99033 -6.33018,2.98277 l -2.0454,0.90492 0.13405,1.62901 0.004,0 c 0.10406,0.7613 0.87379,1.53935 2.53592,2.34704 l 0.70686,0.34325 c 5.78083,2.8091 13.69203,1.78286 22.60301,0.34937 l 38.05628,-6.12201 c 4.59747,-0.73958 6.99556,-2.30753 7.45139,-4.03799 l 0.006,-9.6e-4 -9.5e-4,-0.0204 c 0.11118,-0.43771 0.10001,-0.88506 -0.0335,-1.33246 l -0.0283,-1.10698 -1.0684,-0.58806 c -0.61611,-0.60567 -1.46081,-1.18311 -2.5268,-1.70107 l -4.83219,-2.34704 -2.12461,-1.03284 c -2.60942,-1.26804 -6.56457,-2.18794 -10.71451,-2.58572 l -0.0467,-0.0132 -5.88941,-0.8287 z"
       id="path4270"
       inkscape:connector-curvature="0"
       inkscape:export-xdpi="90"
       inkscape:export-ydpi="90" />
    <path
       style="opacity:1;fill:#ffffff;fill-opacity:1;stroke:none;stroke-width:4.51499987;stroke-linecap:butt;stroke-linejoin:miter;stroke-miterlimit:4;stroke-dasharray:none;stroke-opacity:1"
       d="m 387.17724,430.29398 c -0.70372,0.1794 -1.36646,0.38971 -1.97756,0.6331 l -27.83919,11.08705 c -6.51858,2.59605 -11.48209,5.0544 -5.70126,7.86349 l 0.70674,0.34341 c 5.78083,2.8091 13.69201,1.78311 22.60298,0.34961 l 38.05661,-6.12208 c 8.91102,-1.43349 9.57984,-5.97876 3.79901,-8.78785 l -6.95632,-3.3803 c -5.23887,-2.54574 -15.88853,-3.72068 -22.69101,-1.98643 z m -2.24768,2.40919 3.55886,-0.92943 c 4.43557,-1.15837 10.62419,-0.81886 13.8759,0.76125 l 11.52164,5.59873 c 3.25171,1.58011 2.29866,3.78473 -2.13691,4.9431 l -3.55887,0.92942 c -4.43556,1.15838 -10.62417,0.81886 -13.87589,-0.76124 l -11.52164,-5.59873 c -3.25171,-1.58011 -2.29866,-3.78473 2.13691,-4.9431 z m -18.26602,7.54353 2.4228,-0.63272 c 3.01985,-0.78867 7.23312,-0.55751 9.44695,0.51827 l 7.8444,3.81183 c 2.21388,1.07579 1.56503,2.57672 -1.45483,3.36537 l -2.42281,0.63272 c -3.01986,0.78867 -7.2331,0.55752 -9.44699,-0.51827 l -7.84439,-3.81183 c -2.21385,-1.07579 -1.56499,-2.5767 1.45487,-3.36537 z"
       id="rect4257"
       inkscape:connector-curvature="0"
       inkscape:export-xdpi="90"
       inkscape:export-ydpi="90" />
  </g>
</svg>
